<?xml version="1.0" encoding="utf-8"?>
<!-- Generator: Adobe Illustrator 25.3.0, SVG Export Plug-In . SVG Version: 6.00 Build 0)  -->
<svg version="1.1" id="Layer_1" xmlns="http://www.w3.org/2000/svg" xmlns:xlink="http://www.w3.org/1999/xlink" x="0px" y="0px"
	 viewBox="0 0 450.6 487.2" style="enable-background:new 0 0 450.6 487.2;" xml:space="preserve">
<path d="M448.5,357.1L350.2,93.7C328,34.1,272.8-2.7,209.1,0.2c-63.5,2.7-115.5,44-132.6,105.3L1.2,376.2
	c-2.9,10.4-0.6,21.7,6.2,30.2c6.4,8.1,16.3,12.8,26.5,12.8c0.5,0,1,0,1.5,0l140.3-6c9.4,42.5,47.4,74,92.1,74c1.1,0,2.2,0,3.3-0.1
	c25.2-0.9,48.6-11.5,65.9-29.9c13.6-14.6,21.8-32.6,24.4-52l56.7-2.4c10.8-0.5,20.9-6.1,26.8-15.1
	C450.9,378.7,452.2,367.2,448.5,357.1z M312.4,434.2c-11.1,11.9-26.2,18.7-42.4,19.3c-27.5,0.9-51.3-16.8-59.6-41.8l116.5-5
	C324.5,416.9,319.7,426.4,312.4,434.2z M416.6,369.2l-226,9.5c-0.3,0-0.6-0.2-0.9-0.1c-0.3,0-0.6,0.2-0.9,0.2l-155.1,6.5L109,114.4
	c15.8-56.9,62.8-79,101.5-80.6c1.6-0.1,3.2-0.1,4.9-0.1c37.8,0,83.4,18.7,103.2,71.8l98.2,263.4L416.6,369.2z"/>
</svg>
